<svg xmlns="http://www.w3.org/2000/svg" width="37" height="15" viewBox="0 0 37 15">
  <path fill="#000" fill-rule="evenodd" d="M239.615775,12.1066513 L232.452827,4.94370327 L225.29161,12.1049208 L225.323942,12.1372531 L223.271857,14.1893382 L223.239525,14.1570059 L223.207192,14.1893382 L221.155107,12.1372531 L221.18744,12.1049208 L214.027983,4.94546435 L206.866796,12.1066513 L206.897398,12.1372531 L204.845313,14.1893382 L204.814711,14.1587364 L204.780648,14.1927993 L202.728563,12.1407142 L202.762626,12.1066513 L195.599678,4.94370327 L188.438461,12.1049208 L188.470793,12.1372531 L186.418708,14.1893382 L186.386375,14.1570059 L186.354043,14.1893382 L184.301958,12.1372531 L184.33429,12.1049208 L177.174834,4.94546435 L170.013647,12.1066513 L170.044249,12.1372531 L167.992164,14.1893382 L167.961562,14.1587364 L167.927499,14.1927993 L165.875414,12.1407142 L165.909477,12.1066513 L158.746529,4.94370327 L151.585281,12.1049514 L151.617582,12.1372531 L149.565497,14.1893382 L149.533195,14.1570365 L149.500894,14.1893382 L147.448809,12.1372531 L147.48111,12.1049514 L140.321623,4.94546435 L133.160436,12.1066513 L133.191038,12.1372531 L131.138953,14.1893382 L131.108351,14.1587364 L131.074288,14.1927993 L129.022203,12.1407142 L129.056266,12.1066513 L121.893318,4.94370327 L114.732101,12.1049208 L114.764433,12.1372531 L112.712348,14.1893382 L112.680015,14.1570059 L112.647683,14.1893382 L110.595598,12.1372531 L110.62793,12.1049208 L103.468474,4.94546435 L96.307287,12.1066513 L96.3378888,12.1372531 L94.2858037,14.1893382 L94.2552019,14.1587364 L94.221139,14.1927993 L92.1690539,12.1407142 L92.2031168,12.1066513 L85.0401687,4.94370327 L77.8789512,12.1049208 L77.9112835,12.1372531 L75.8591984,14.1893382 L75.8268661,14.1570059 L75.7945338,14.1893382 L73.7424487,12.1372531 L73.774781,12.1049208 L66.6153245,4.94546435 L59.4541376,12.1066513 L59.4847394,12.1372531 L57.4326543,14.1893382 L57.4020525,14.1587364 L57.3679896,14.1927993 L55.3159045,12.1407142 L55.3499674,12.1066513 L48.1870193,4.94370327 L41.0258018,12.1049208 L41.0581341,12.1372531 L39.006049,14.1893382 L38.9737167,14.1570059 L38.9413844,14.1893382 L36.8892993,12.1372531 L36.9216316,12.1049208 L29.7621751,4.94546435 L22.6009882,12.1066513 L22.63159,12.1372531 L20.5795049,14.1893382 L20.5489031,14.1587364 L20.5148402,14.1927993 L18.4627551,12.1407142 L18.496818,12.1066513 L11.3338699,4.94370327 L2.08823496,14.1893382 L0.0361498614,12.1372531 L9.28178482,2.89161817 L9.24945249,2.85928584 L11.3015376,0.807200739 L11.3338699,0.839533068 L11.3662022,0.807200739 L13.4182873,2.85928584 L13.385955,2.89161817 L20.5489031,10.0545662 L27.71009,2.89337925 L27.6759966,2.85928584 L29.7280817,0.807200739 L29.7621751,0.841294146 L29.7928075,0.810661772 L31.8448926,2.86274687 L31.8142602,2.89337925 L38.9737167,10.0528357 L46.1349342,2.89161817 L46.1026019,2.85928584 L48.154687,0.807200739 L48.1870193,0.839533068 L48.2193517,0.807200739 L50.2714368,2.85928584 L50.2391044,2.89161817 L57.4020525,10.0545662 L64.5632394,2.89337925 L64.529146,2.85928584 L66.5812311,0.807200739 L66.6153245,0.841294146 L66.6459569,0.810661772 L68.698042,2.86274687 L68.6674096,2.89337925 L75.8268661,10.0528357 L82.9880836,2.89161817 L82.9557513,2.85928584 L85.0078364,0.807200739 L85.0401687,0.839533068 L85.0725011,0.807200739 L87.1245862,2.85928584 L87.0922538,2.89161817 L94.2552019,10.0545662 L101.416389,2.89337925 L101.382295,2.85928584 L103.434381,0.807200739 L103.468474,0.841294146 L103.499106,0.810661772 L105.551191,2.86274687 L105.520559,2.89337925 L112.680015,10.0528357 L119.841233,2.89161817 L119.808901,2.85928584 L121.860986,0.807200739 L121.893318,0.839533068 L121.92565,0.807200739 L123.977736,2.85928584 L123.945403,2.89161817 L131.108351,10.0545662 L138.269538,2.89337925 L138.235445,2.85928584 L140.28753,0.807200739 L140.321623,0.841294146 L140.352256,0.810661772 L142.404341,2.86274687 L142.373708,2.89337925 L149.533195,10.0528663 L156.694444,2.89161817 L156.662111,2.85928584 L158.714196,0.807200739 L158.746529,0.839533068 L158.778861,0.807200739 L160.830946,2.85928584 L160.798614,2.89161817 L167.961562,10.0545662 L175.122749,2.89337925 L175.088655,2.85928584 L177.14074,0.807200739 L177.174834,0.841294146 L177.205466,0.810661772 L179.257551,2.86274687 L179.226919,2.89337925 L186.386375,10.0528357 L193.547593,2.89161817 L193.515261,2.85928584 L195.567346,0.807200739 L195.599678,0.839533068 L195.63201,0.807200739 L197.684095,2.85928584 L197.651763,2.89161817 L204.814711,10.0545662 L211.975898,2.89337925 L211.941805,2.85928584 L213.99389,0.807200739 L214.027983,0.841294146 L214.058616,0.810661772 L216.110701,2.86274687 L216.080068,2.89337925 L223.239525,10.0528357 L230.400742,2.89161817 L230.36841,2.85928584 L232.420495,0.807200739 L232.452827,0.839533068 L232.48516,0.807200739 L234.537245,2.85928584 L234.504913,2.89161817 L241.667861,10.0545662 L250.911765,0.810661772 L252.96385,2.86274687 L243.719946,12.1066513 L243.750548,12.1372531 L241.698462,14.1893382 L241.667861,14.1587364 L241.633798,14.1927993 L239.581713,12.1407142 L239.615775,12.1066513 Z" transform="translate(-20)"/>
</svg>
